<?xml version="1.0" standalone="no"?>
<!DOCTYPE svg PUBLIC "-//W3C//DTD SVG 20010904//EN"
 "http://www.w3.org/TR/2001/REC-SVG-20010904/DTD/svg10.dtd">
<svg version="1.0" xmlns="http://www.w3.org/2000/svg"
 width="404.000000pt" height="125.000000pt" viewBox="0 0 404.000000 125.000000"
 preserveAspectRatio="xMidYMid meet">

<g transform="translate(0.000000,125.000000) scale(0.100000,-0.100000)"
fill="#000000" stroke="none">
<path d="M563 1220 l7 -32 -90 4 c-50 1 -90 2 -90 0 0 -1 8 -15 17 -29 l17
-26 -42 5 c-50 7 -54 -6 -17 -50 l25 -30 -30 -12 c-27 -11 -50 -36 -50 -54 0
-3 16 -6 35 -6 37 0 43 -8 23 -28 -9 -9 -9 -17 -1 -34 19 -38 21 -52 11 -71
-16 -30 15 -67 57 -67 25 0 35 -5 40 -20 3 -11 22 -33 42 -49 28 -23 33 -32
21 -36 -8 -3 -21 -24 -28 -46 -15 -43 -6 -59 32 -59 29 0 30 -19 4 -44 -31
-28 -33 -61 -6 -76 11 -6 20 -18 20 -27 0 -14 -3 -13 -26 2 -17 11 -37 15 -55
11 -38 -7 -111 -54 -107 -68 3 -7 24 -16 48 -22 31 -8 48 -19 57 -36 15 -30 4
-40 -50 -40 -51 0 -90 -22 -117 -65 -22 -35 -57 -55 -237 -136 -40 -17 -70
-35 -68 -39 3 -4 62 10 132 31 132 40 182 46 229 29 36 -14 78 -4 106 26 30
32 65 31 80 -1 10 -22 8 -29 -15 -53 -29 -30 -35 -58 -14 -65 17 -6 88 12 113
28 12 8 31 34 43 59 19 39 27 45 62 51 166 28 399 253 325 314 -18 15 -104 41
-137 41 -15 0 -32 7 -39 15 -7 8 -19 15 -26 15 -9 0 -14 11 -14 30 0 40 34 74
105 106 60 28 79 51 69 88 -3 13 -1 27 5 30 15 10 14 36 -3 42 -7 3 -36 -9
-63 -25 -61 -38 -65 -38 -53 -5 6 14 10 36 10 48 0 13 7 36 15 53 21 41 17
100 -7 106 -12 3 -18 14 -18 32 0 17 -11 37 -28 53 -15 15 -34 42 -41 60 -19
45 -69 68 -166 77 -44 4 -89 12 -99 17 -17 9 -18 7 -13 -22z m205 -26 c60 -22
82 -73 46 -109 -15 -14 -17 -13 -33 17 -19 39 -79 75 -138 84 -23 3 -47 12
-53 19 -15 17 121 9 178 -11z m-86 -37 c48 -20 78 -51 78 -81 0 -18 -7 -25
-31 -30 -54 -10 -78 -7 -91 14 -22 35 -88 74 -146 85 -31 6 -58 17 -60 25 -7
19 200 9 250 -13z m-169 -38 c42 -11 123 -78 96 -79 -9 0 -44 -9 -79 -21 -50
-16 -75 -19 -127 -13 -51 5 -61 9 -53 20 6 7 25 16 41 19 31 7 37 19 17 32 -7
4 -22 18 -32 31 l-19 22 59 0 c32 0 76 -5 97 -11z m367 -48 c5 -11 10 -29 10
-40 0 -17 -3 -16 -30 11 -30 29 -32 48 -5 48 8 0 19 -9 25 -19z m-20 -53 c0
-5 -8 -8 -17 -8 -10 0 -31 -7 -48 -16 -16 -9 -43 -15 -60 -15 -86 3 -138 -1
-179 -13 -52 -16 -57 -10 -22 24 21 19 40 24 123 29 57 4 110 14 128 23 27 14
31 14 52 -1 12 -9 23 -19 23 -23z m74 -44 c8 -21 -1 -34 -23 -34 -22 0 -45 25
-36 40 10 16 52 12 59 -6z m-448 -22 c-9 -18 -28 -32 -50 -39 -33 -10 -49 -3
-26 12 15 9 2 25 -15 18 -8 -3 -15 0 -15 5 0 18 33 31 78 32 l43 0 -15 -28z
m218 -4 c15 -25 -5 -42 -39 -34 -30 8 -44 34 -24 47 20 13 50 7 63 -13z m86
-32 c12 -34 54 -59 85 -54 14 3 27 2 30 -2 9 -14 -16 -80 -42 -110 -56 -67
-145 -89 -245 -59 -57 17 -73 27 -111 70 -35 40 -49 50 -65 45 -12 -4 -26 0
-36 9 -20 20 -20 39 -1 55 12 10 20 9 41 -5 29 -19 54 -14 54 12 0 14 7 10 26
-14 23 -30 31 -33 77 -33 64 0 114 27 123 67 9 39 13 43 35 43 11 0 23 -10 29
-24z m220 -121 c-7 -8 -9 -23 -4 -37 6 -20 5 -21 -10 -9 -9 8 -20 10 -24 6 -4
-4 -1 -10 6 -12 25 -9 11 -23 -23 -23 -51 0 -47 31 8 64 47 29 65 33 47 11z
m-97 -86 c10 -18 15 -34 11 -38 -8 -8 -44 37 -44 55 0 23 14 16 33 -17z m64
-15 c-3 -3 -12 -4 -19 -1 -8 3 -5 6 6 6 11 1 17 -2 13 -5z m-211 -101 c-10
-10 -19 5 -10 18 6 11 8 11 12 0 2 -7 1 -15 -2 -18z m34 -62 c0 -15 -38 -56
-45 -49 -9 9 21 58 35 58 6 0 10 -4 10 -9z m70 -15 c0 -3 -9 -21 -21 -40 -24
-40 -59 -49 -59 -15 0 37 19 59 50 59 17 0 30 -2 30 -4z m89 -35 c18 -5 25
-15 27 -41 3 -19 14 -48 25 -63 l21 -28 -51 -51 -51 -51 -75 7 c-56 5 -81 3
-102 -7 -42 -22 -181 -59 -206 -55 -16 2 -7 9 33 24 40 15 56 27 58 43 5 30
-21 36 -68 17 -22 -9 -48 -16 -58 -16 -15 1 -15 2 3 16 30 24 137 74 158 74
10 0 22 -11 27 -25 11 -30 22 -31 76 -6 55 25 59 35 29 67 -32 35 -32 41 3 36
25 -3 32 2 50 32 22 37 44 43 101 27z m88 -37 c-6 -6 -47 9 -47 17 0 5 11 3
25 -3 14 -6 24 -13 22 -14z m-398 -64 c10 -6 -7 -19 -60 -46 -41 -22 -78 -40
-82 -43 -19 -8 24 58 54 83 31 26 48 27 88 6z m-210 -124 c9 -11 9 -19 -1 -36
-12 -19 -10 -24 16 -45 l28 -23 -21 -21 c-23 -23 -64 -27 -122 -11 -33 9 -109
-4 -204 -35 -11 -3 21 14 72 39 69 34 96 54 113 81 34 55 94 81 119 51z m51 5
c0 -12 -20 -25 -27 -18 -7 7 6 27 18 27 5 0 9 -4 9 -9z m373 -29 c29 -7 29 -7
-20 -31 -72 -35 -132 -51 -193 -51 -84 0 -94 15 -24 34 33 9 84 28 114 41 31
14 64 23 75 19 11 -3 33 -9 48 -12z m-343 -57 c0 -8 -4 -15 -9 -15 -13 0 -22
16 -14 24 11 11 23 6 23 -9z"/>
<path d="M400 840 c0 -5 12 -10 26 -10 14 0 23 4 19 10 -3 6 -15 10 -26 10
-10 0 -19 -4 -19 -10z"/>
<path d="M733 810 c-13 -5 -23 -14 -23 -21 0 -7 7 -8 18 -4 9 4 29 10 45 13
15 2 27 8 27 13 0 11 -38 11 -67 -1z"/>
<path d="M859 419 c-29 -29 -23 -79 14 -99 24 -13 30 -13 55 0 52 30 31 120
-28 120 -11 0 -29 -9 -41 -21z m75 -18 c23 -25 13 -59 -20 -67 -30 -8 -54 11
-54 40 0 45 44 61 74 27z"/>
<path d="M1351 803 c-38 -19 -71 -66 -71 -101 0 -35 27 -80 58 -96 15 -8 49
-17 75 -21 26 -4 57 -15 69 -24 19 -16 19 -18 3 -34 -22 -23 -71 -21 -95 3
-14 14 -33 20 -65 20 -42 0 -45 -2 -45 -26 0 -34 51 -81 96 -90 62 -11 148 0
182 25 37 26 58 88 44 129 -12 36 -61 68 -118 77 -56 8 -94 24 -94 40 0 37 66
47 95 15 13 -15 31 -20 68 -20 49 0 49 0 42 28 -15 59 -71 92 -157 92 -29 0
-68 -8 -87 -17z"/>
<path d="M1737 814 c-4 -4 -7 -25 -7 -46 l0 -38 55 0 55 0 0 -151 0 -150 53 3
52 3 3 148 3 147 50 0 50 0 -3 43 -3 42 -151 3 c-82 1 -153 -1 -157 -4z"/>
<path d="M2275 806 c-49 -21 -93 -79 -101 -131 -22 -150 50 -245 186 -245 127
0 196 76 188 209 -4 83 -33 131 -94 161 -47 23 -133 26 -179 6z m135 -96 c25
-25 34 -61 27 -113 -9 -65 -63 -96 -117 -67 -44 24 -50 140 -9 181 25 25 74
24 99 -1z"/>
<path d="M2710 625 l0 -195 55 0 54 0 3 100 3 100 68 -100 68 -100 44 0 45 0
0 195 0 195 -55 0 -55 0 0 -102 c-1 -84 -3 -100 -13 -86 -7 9 -38 55 -71 102
-59 86 -59 86 -102 86 l-44 0 0 -195z"/>
<path d="M3220 625 l0 -196 53 3 52 3 3 57 c2 32 9 61 16 68 13 10 25 -5 93
-118 6 -9 27 -12 70 -10 l62 3 -66 106 -65 106 61 81 c34 45 61 83 61 86 0 4
-25 6 -54 6 l-55 0 -58 -80 -58 -81 -5 78 -5 78 -52 3 -53 3 0 -196z"/>
<path d="M3764 801 c-70 -43 -86 -120 -36 -171 28 -27 85 -50 128 -50 11 0 29
-6 40 -14 15 -12 17 -18 8 -33 -16 -26 -62 -28 -95 -4 -32 24 -119 30 -119 9
0 -28 42 -80 75 -94 53 -22 150 -18 195 7 44 25 60 54 60 110 0 30 -6 46 -26
64 -29 27 -33 29 -117 45 -60 12 -78 29 -57 55 18 21 56 19 80 -5 14 -14 33
-20 65 -20 40 0 45 2 45 23 0 32 -27 67 -66 83 -49 21 -142 18 -180 -5z"/>
</g>
</svg>
